<svg width="16" height="16" viewBox="0 0 16 16" fill="none" xmlns="http://www.w3.org/2000/svg">
<g id="Search_Solid" clip-path="url(#clip0_455_681)">
<path id="Vector" d="M12.3643 10.9974L15.7791 14.9997L14.6042 16.0002L11.1985 12.0071C10.097 12.7415 8.88222 13.1087 7.55421 13.1087C6.66684 13.1087 5.81773 12.9358 5.00689 12.59C4.19604 12.2443 3.49839 11.7792 2.91393 11.1947C2.32947 10.6103 1.86437 9.91266 1.51864 9.10179C1.1729 8.29092 1.00002 7.44181 1 6.55446C0.999976 5.66711 1.17286 4.818 1.51864 4.00713C1.86442 3.19626 2.32952 2.49861 2.91393 1.91417C3.49834 1.32974 4.19599 0.864643 5.00689 0.518883C5.81778 0.173124 6.66689 0.000244141 7.55421 0.000244141C8.44154 0.000244141 9.29065 0.173124 10.1015 0.518883C10.9124 0.864643 11.6101 1.32974 12.1945 1.91417C12.7789 2.49861 13.244 3.19626 13.5898 4.00713C13.9356 4.818 14.1085 5.66711 14.1084 6.55446C14.1084 7.11747 14.0381 7.66824 13.8973 8.20677C13.7566 8.74531 13.5561 9.24713 13.296 9.71223C13.0359 10.1773 12.7254 10.6057 12.3643 10.9974H12.3643ZM7.55425 11.5665C8.23353 11.5665 8.88222 11.4333 9.50031 11.1671C10.1184 10.9009 10.6508 10.5444 11.0975 10.0977C11.5443 9.65099 11.9007 9.11858 12.167 8.50049C12.4332 7.88239 12.5663 7.2337 12.5663 6.55442C12.5663 5.87514 12.4332 5.22646 12.167 4.60836C11.9007 3.99026 11.5443 3.45784 11.0975 3.01109C10.6508 2.56434 10.1184 2.20787 9.50031 1.94168C8.88222 1.67549 8.23353 1.54239 7.55425 1.54239C6.87497 1.54239 6.22628 1.67549 5.60819 1.94168C4.99009 2.20787 4.45767 2.56436 4.01092 3.01113C3.56417 3.4579 3.2077 3.99031 2.94151 4.60836C2.67532 5.22641 2.54222 5.8751 2.54222 6.55442C2.54222 7.23375 2.67532 7.88244 2.94151 8.50049C3.2077 9.11854 3.56418 9.65095 4.01096 10.0977C4.45773 10.5445 4.99014 10.901 5.60819 11.1671C6.22624 11.4333 6.87492 11.5664 7.55425 11.5665Z" fill="white"/>
</g>
<defs>
<clipPath id="clip0_455_681">
<rect width="16" height="16" fill="white"/>
</clipPath>
</defs>
</svg>
