<svg width="560" height="12" viewBox="0 0 560 12" fill="none" xmlns="http://www.w3.org/2000/svg">
<path d="M2.78 10V3.52H1.92C1.77 4.22 1.15 4.72 0.25 4.74V5.43H1.82V10H2.78ZM4.28539 9.36C4.28539 9.75 4.58539 10.05 4.97539 10.05C5.36539 10.05 5.67539 9.75 5.67539 9.36C5.67539 8.97 5.36539 8.66 4.97539 8.66C4.58539 8.66 4.28539 8.97 4.28539 9.36ZM4.27539 5.84C4.27539 6.23 4.57539 6.53 4.96539 6.53C5.35539 6.53 5.66539 6.23 5.66539 5.84C5.66539 5.45 5.35539 5.14 4.96539 5.14C4.57539 5.14 4.27539 5.45 4.27539 5.84ZM6.77578 8.54H9.95578V10H10.9058V8.54H12.0158V7.63H10.9058V3.52H9.55578L6.77578 7.41V8.54ZM9.95578 7.63H7.67578L9.95578 4.46V7.63ZM13.578 5.85C13.568 5.75 13.558 5.65 13.558 5.56C13.558 4.82 13.958 4.23 14.808 4.23C15.628 4.23 16.028 4.78 16.028 5.37C16.028 5.87 15.748 6.33 15.138 6.72L14.058 7.42C12.958 8.13 12.538 8.94 12.518 10H17.058V9.09H13.728C13.818 8.69 14.148 8.42 14.518 8.18L15.798 7.36C16.538 6.89 17.018 6.21 17.018 5.36C17.018 4.28 16.218 3.37 14.828 3.37C13.408 3.37 12.588 4.36 12.588 5.47C12.588 5.55 12.588 5.64 12.598 5.73L13.578 5.85Z" fill="#B2B2B2"/>
<rect x="26" y="4" width="504" height="4" rx="2" fill="#777777"/>
<rect x="26" y="4" width="169" height="4" rx="2" fill="#B2B2B2"/>
<path d="M38.2 6.484C38.2 6.788 38.452 7.06 38.844 7.06C39.188 7.06 39.38 6.876 39.464 6.74C39.464 6.88 39.476 6.952 39.484 7H39.852C39.844 6.952 39.828 6.852 39.828 6.684V5.72C39.828 5.344 39.604 5.016 39.028 5.016C38.612 5.016 38.28 5.272 38.24 5.64L38.6 5.724C38.624 5.5 38.772 5.336 39.036 5.336C39.328 5.336 39.452 5.492 39.452 5.68C39.452 5.748 39.42 5.808 39.304 5.824L38.784 5.9C38.452 5.948 38.2 6.14 38.2 6.484ZM38.896 6.744C38.704 6.744 38.584 6.608 38.584 6.464C38.584 6.292 38.704 6.2 38.864 6.176L39.452 6.088V6.176C39.452 6.596 39.204 6.744 38.896 6.744ZM40.4738 6.5C40.5058 6.72 40.7298 7.06 41.2578 7.06C41.7338 7.06 41.9618 6.736 41.9618 6.464C41.9618 6.18 41.7778 5.968 41.4298 5.892L41.1178 5.824C40.9698 5.792 40.8978 5.708 40.8978 5.592C40.8978 5.46 41.0258 5.336 41.2178 5.336C41.5218 5.336 41.6018 5.556 41.6178 5.656L41.9498 5.532C41.9098 5.36 41.7458 5.016 41.2178 5.016C40.8418 5.016 40.5338 5.296 40.5338 5.624C40.5338 5.896 40.7138 6.1 41.0138 6.164L41.3418 6.236C41.5018 6.272 41.5898 6.364 41.5898 6.484C41.5898 6.62 41.4738 6.74 41.2618 6.74C40.9898 6.74 40.8378 6.58 40.8138 6.38L40.4738 6.5ZM42.9068 6.032C42.9068 5.636 43.1308 5.356 43.4748 5.356C43.8188 5.356 44.0268 5.628 44.0268 6.024C44.0268 6.42 43.8148 6.72 43.4708 6.72C43.1108 6.72 42.9068 6.428 42.9068 6.032ZM44.0308 6.74C44.0308 6.856 44.0428 6.956 44.0508 7H44.4148C44.4108 6.968 44.3948 6.828 44.3948 6.644V4.104H44.0228V5.348C43.9588 5.192 43.7748 5.024 43.4348 5.024C42.8908 5.024 42.5228 5.488 42.5228 6.032C42.5228 6.604 42.8708 7.052 43.4348 7.052C43.7348 7.052 43.9388 6.892 44.0308 6.708V6.74ZM45.0944 6.5C45.1264 6.72 45.3504 7.06 45.8784 7.06C46.3544 7.06 46.5824 6.736 46.5824 6.464C46.5824 6.18 46.3984 5.968 46.0504 5.892L45.7384 5.824C45.5904 5.792 45.5184 5.708 45.5184 5.592C45.5184 5.46 45.6464 5.336 45.8384 5.336C46.1424 5.336 46.2224 5.556 46.2384 5.656L46.5704 5.532C46.5304 5.36 46.3664 5.016 45.8384 5.016C45.4624 5.016 45.1544 5.296 45.1544 5.624C45.1544 5.896 45.3344 6.1 45.6344 6.164L45.9624 6.236C46.1224 6.272 46.2104 6.364 46.2104 6.484C46.2104 6.62 46.0944 6.74 45.8824 6.74C45.6104 6.74 45.4584 6.58 45.4344 6.38L45.0944 6.5ZM47.1639 6.484C47.1639 6.788 47.4159 7.06 47.8079 7.06C48.1519 7.06 48.3439 6.876 48.4279 6.74C48.4279 6.88 48.4399 6.952 48.4479 7H48.8159C48.8079 6.952 48.7919 6.852 48.7919 6.684V5.72C48.7919 5.344 48.5679 5.016 47.9919 5.016C47.5759 5.016 47.2439 5.272 47.2039 5.64L47.5639 5.724C47.5879 5.5 47.7359 5.336 47.9999 5.336C48.2919 5.336 48.4159 5.492 48.4159 5.68C48.4159 5.748 48.3839 5.808 48.2679 5.824L47.7479 5.9C47.4159 5.948 47.1639 6.14 47.1639 6.484ZM47.8599 6.744C47.6679 6.744 47.5479 6.608 47.5479 6.464C47.5479 6.292 47.6679 6.2 47.8279 6.176L48.4159 6.088V6.176C48.4159 6.596 48.1679 6.744 47.8599 6.744ZM49.8417 6.032C49.8417 5.636 50.0657 5.356 50.4097 5.356C50.7537 5.356 50.9617 5.628 50.9617 6.024C50.9617 6.42 50.7497 6.72 50.4057 6.72C50.0457 6.72 49.8417 6.428 49.8417 6.032ZM50.9657 6.74C50.9657 6.856 50.9777 6.956 50.9857 7H51.3497C51.3457 6.968 51.3297 6.828 51.3297 6.644V4.104H50.9577V5.348C50.8937 5.192 50.7097 5.024 50.3697 5.024C49.8257 5.024 49.4577 5.488 49.4577 6.032C49.4577 6.604 49.8057 7.052 50.3697 7.052C50.6697 7.052 50.8737 6.892 50.9657 6.708V6.74ZM52.0292 6.5C52.0612 6.72 52.2852 7.06 52.8132 7.06C53.2892 7.06 53.5172 6.736 53.5172 6.464C53.5172 6.18 53.3332 5.968 52.9852 5.892L52.6732 5.824C52.5252 5.792 52.4532 5.708 52.4532 5.592C52.4532 5.46 52.5812 5.336 52.7732 5.336C53.0772 5.336 53.1572 5.556 53.1732 5.656L53.5052 5.532C53.4652 5.36 53.3012 5.016 52.7732 5.016C52.3972 5.016 52.0892 5.296 52.0892 5.624C52.0892 5.896 52.2692 6.1 52.5692 6.164L52.8972 6.236C53.0572 6.272 53.1452 6.364 53.1452 6.484C53.1452 6.62 53.0292 6.74 52.8172 6.74C52.5452 6.74 52.3932 6.58 52.3692 6.38L52.0292 6.5ZM54.0988 6.484C54.0988 6.788 54.3508 7.06 54.7428 7.06C55.0868 7.06 55.2788 6.876 55.3628 6.74C55.3628 6.88 55.3748 6.952 55.3828 7H55.7508C55.7428 6.952 55.7268 6.852 55.7268 6.684V5.72C55.7268 5.344 55.5028 5.016 54.9268 5.016C54.5108 5.016 54.1788 5.272 54.1388 5.64L54.4988 5.724C54.5228 5.5 54.6708 5.336 54.9348 5.336C55.2268 5.336 55.3508 5.492 55.3508 5.68C55.3508 5.748 55.3188 5.808 55.2028 5.824L54.6828 5.9C54.3508 5.948 54.0988 6.14 54.0988 6.484ZM54.7948 6.744C54.6028 6.744 54.4828 6.608 54.4828 6.464C54.4828 6.292 54.6028 6.2 54.7628 6.176L55.3508 6.088V6.176C55.3508 6.596 55.1028 6.744 54.7948 6.744ZM56.7765 6.032C56.7765 5.636 57.0005 5.356 57.3445 5.356C57.6885 5.356 57.8965 5.628 57.8965 6.024C57.8965 6.42 57.6845 6.72 57.3405 6.72C56.9805 6.72 56.7765 6.428 56.7765 6.032ZM57.9005 6.74C57.9005 6.856 57.9125 6.956 57.9205 7H58.2845C58.2805 6.968 58.2645 6.828 58.2645 6.644V4.104H57.8925V5.348C57.8285 5.192 57.6445 5.024 57.3045 5.024C56.7605 5.024 56.3925 5.488 56.3925 6.032C56.3925 6.604 56.7405 7.052 57.3045 7.052C57.6045 7.052 57.8085 6.892 57.9005 6.708V6.74ZM59.0241 6.484C59.0241 6.788 59.2761 7.06 59.6681 7.06C60.0121 7.06 60.2041 6.876 60.2881 6.74C60.2881 6.88 60.3001 6.952 60.3081 7H60.6761C60.6681 6.952 60.6521 6.852 60.6521 6.684V5.72C60.6521 5.344 60.4281 5.016 59.8521 5.016C59.4361 5.016 59.1041 5.272 59.0641 5.64L59.4241 5.724C59.4481 5.5 59.5961 5.336 59.8601 5.336C60.1521 5.336 60.2761 5.492 60.2761 5.68C60.2761 5.748 60.2441 5.808 60.1281 5.824L59.6081 5.9C59.2761 5.948 59.0241 6.14 59.0241 6.484ZM59.7201 6.744C59.5281 6.744 59.4081 6.608 59.4081 6.464C59.4081 6.292 59.5281 6.2 59.6881 6.176L60.2761 6.088V6.176C60.2761 6.596 60.0281 6.744 59.7201 6.744ZM61.7018 6.032C61.7018 5.636 61.9258 5.356 62.2698 5.356C62.6138 5.356 62.8218 5.628 62.8218 6.024C62.8218 6.42 62.6098 6.72 62.2658 6.72C61.9058 6.72 61.7018 6.428 61.7018 6.032ZM62.8258 6.74C62.8258 6.856 62.8378 6.956 62.8458 7H63.2098C63.2058 6.968 63.1898 6.828 63.1898 6.644V4.104H62.8178V5.348C62.7538 5.192 62.5698 5.024 62.2298 5.024C61.6858 5.024 61.3178 5.488 61.3178 6.032C61.3178 6.604 61.6658 7.052 62.2298 7.052C62.5298 7.052 62.7338 6.892 62.8258 6.708V6.74ZM63.9494 6.484C63.9494 6.788 64.2014 7.06 64.5934 7.06C64.9374 7.06 65.1294 6.876 65.2134 6.74C65.2134 6.88 65.2254 6.952 65.2334 7H65.6014C65.5934 6.952 65.5774 6.852 65.5774 6.684V5.72C65.5774 5.344 65.3534 5.016 64.7774 5.016C64.3614 5.016 64.0294 5.272 63.9894 5.64L64.3494 5.724C64.3734 5.5 64.5214 5.336 64.7854 5.336C65.0774 5.336 65.2014 5.492 65.2014 5.68C65.2014 5.748 65.1694 5.808 65.0534 5.824L64.5334 5.9C64.2014 5.948 63.9494 6.14 63.9494 6.484ZM64.6454 6.744C64.4534 6.744 64.3334 6.608 64.3334 6.464C64.3334 6.292 64.4534 6.2 64.6134 6.176L65.2014 6.088V6.176C65.2014 6.596 64.9534 6.744 64.6454 6.744ZM66.2231 6.5C66.2551 6.72 66.4791 7.06 67.0071 7.06C67.4831 7.06 67.7111 6.736 67.7111 6.464C67.7111 6.18 67.5271 5.968 67.1791 5.892L66.8671 5.824C66.7191 5.792 66.6471 5.708 66.6471 5.592C66.6471 5.46 66.7751 5.336 66.9671 5.336C67.2711 5.336 67.3511 5.556 67.3671 5.656L67.6991 5.532C67.6591 5.36 67.4951 5.016 66.9671 5.016C66.5911 5.016 66.2831 5.296 66.2831 5.624C66.2831 5.896 66.4631 6.1 66.7631 6.164L67.0911 6.236C67.2511 6.272 67.3391 6.364 67.3391 6.484C67.3391 6.62 67.2231 6.74 67.0111 6.74C66.7391 6.74 66.5871 6.58 66.5631 6.38L66.2231 6.5ZM68.2927 6.484C68.2927 6.788 68.5447 7.06 68.9367 7.06C69.2807 7.06 69.4727 6.876 69.5567 6.74C69.5567 6.88 69.5687 6.952 69.5767 7H69.9447C69.9367 6.952 69.9207 6.852 69.9207 6.684V5.72C69.9207 5.344 69.6967 5.016 69.1207 5.016C68.7047 5.016 68.3727 5.272 68.3327 5.64L68.6927 5.724C68.7167 5.5 68.8647 5.336 69.1287 5.336C69.4207 5.336 69.5447 5.492 69.5447 5.68C69.5447 5.748 69.5127 5.808 69.3967 5.824L68.8767 5.9C68.5447 5.948 68.2927 6.14 68.2927 6.484ZM68.9887 6.744C68.7967 6.744 68.6767 6.608 68.6767 6.464C68.6767 6.292 68.7967 6.2 68.9567 6.176L69.5447 6.088V6.176C69.5447 6.596 69.2967 6.744 68.9887 6.744ZM70.9704 6.032C70.9704 5.636 71.1944 5.356 71.5384 5.356C71.8824 5.356 72.0904 5.628 72.0904 6.024C72.0904 6.42 71.8784 6.72 71.5344 6.72C71.1744 6.72 70.9704 6.428 70.9704 6.032ZM72.0944 6.74C72.0944 6.856 72.1064 6.956 72.1144 7H72.4784C72.4744 6.968 72.4584 6.828 72.4584 6.644V4.104H72.0864V5.348C72.0224 5.192 71.8384 5.024 71.4984 5.024C70.9544 5.024 70.5864 5.488 70.5864 6.032C70.5864 6.604 70.9344 7.052 71.4984 7.052C71.7984 7.052 72.0024 6.892 72.0944 6.708V6.74ZM73.158 6.5C73.19 6.72 73.414 7.06 73.942 7.06C74.418 7.06 74.646 6.736 74.646 6.464C74.646 6.18 74.462 5.968 74.114 5.892L73.802 5.824C73.654 5.792 73.582 5.708 73.582 5.592C73.582 5.46 73.71 5.336 73.902 5.336C74.206 5.336 74.286 5.556 74.302 5.656L74.634 5.532C74.594 5.36 74.43 5.016 73.902 5.016C73.526 5.016 73.218 5.296 73.218 5.624C73.218 5.896 73.398 6.1 73.698 6.164L74.026 6.236C74.186 6.272 74.274 6.364 74.274 6.484C74.274 6.62 74.158 6.74 73.946 6.74C73.674 6.74 73.522 6.58 73.498 6.38L73.158 6.5ZM75.2275 6.484C75.2275 6.788 75.4795 7.06 75.8715 7.06C76.2155 7.06 76.4075 6.876 76.4915 6.74C76.4915 6.88 76.5035 6.952 76.5115 7H76.8795C76.8715 6.952 76.8555 6.852 76.8555 6.684V5.72C76.8555 5.344 76.6315 5.016 76.0555 5.016C75.6395 5.016 75.3075 5.272 75.2675 5.64L75.6275 5.724C75.6515 5.5 75.7995 5.336 76.0635 5.336C76.3555 5.336 76.4795 5.492 76.4795 5.68C76.4795 5.748 76.4475 5.808 76.3315 5.824L75.8115 5.9C75.4795 5.948 75.2275 6.14 75.2275 6.484ZM75.9235 6.744C75.7315 6.744 75.6115 6.608 75.6115 6.464C75.6115 6.292 75.7315 6.2 75.8915 6.176L76.4795 6.088V6.176C76.4795 6.596 76.2315 6.744 75.9235 6.744ZM77.9052 6.032C77.9052 5.636 78.1292 5.356 78.4732 5.356C78.8172 5.356 79.0252 5.628 79.0252 6.024C79.0252 6.42 78.8132 6.72 78.4692 6.72C78.1092 6.72 77.9052 6.428 77.9052 6.032ZM79.0292 6.74C79.0292 6.856 79.0412 6.956 79.0492 7H79.4132C79.4092 6.968 79.3932 6.828 79.3932 6.644V4.104H79.0212V5.348C78.9572 5.192 78.7732 5.024 78.4332 5.024C77.8892 5.024 77.5212 5.488 77.5212 6.032C77.5212 6.604 77.8692 7.052 78.4332 7.052C78.7332 7.052 78.9372 6.892 79.0292 6.708V6.74ZM80.0928 6.5C80.1248 6.72 80.3488 7.06 80.8768 7.06C81.3528 7.06 81.5808 6.736 81.5808 6.464C81.5808 6.18 81.3968 5.968 81.0488 5.892L80.7368 5.824C80.5888 5.792 80.5168 5.708 80.5168 5.592C80.5168 5.46 80.6448 5.336 80.8368 5.336C81.1408 5.336 81.2208 5.556 81.2368 5.656L81.5688 5.532C81.5288 5.36 81.3648 5.016 80.8368 5.016C80.4608 5.016 80.1528 5.296 80.1528 5.624C80.1528 5.896 80.3328 6.1 80.6328 6.164L80.9608 6.236C81.1208 6.272 81.2088 6.364 81.2088 6.484C81.2088 6.62 81.0928 6.74 80.8808 6.74C80.6088 6.74 80.4568 6.58 80.4328 6.38L80.0928 6.5ZM82.1623 6.484C82.1623 6.788 82.4143 7.06 82.8063 7.06C83.1503 7.06 83.3423 6.876 83.4263 6.74C83.4263 6.88 83.4383 6.952 83.4463 7H83.8143C83.8063 6.952 83.7903 6.852 83.7903 6.684V5.72C83.7903 5.344 83.5663 5.016 82.9903 5.016C82.5743 5.016 82.2423 5.272 82.2023 5.64L82.5623 5.724C82.5863 5.5 82.7343 5.336 82.9983 5.336C83.2903 5.336 83.4143 5.492 83.4143 5.68C83.4143 5.748 83.3823 5.808 83.2663 5.824L82.7463 5.9C82.4143 5.948 82.1623 6.14 82.1623 6.484ZM82.8583 6.744C82.6663 6.744 82.5463 6.608 82.5463 6.464C82.5463 6.292 82.6663 6.2 82.8263 6.176L83.4143 6.088V6.176C83.4143 6.596 83.1663 6.744 82.8583 6.744ZM84.8401 6.032C84.8401 5.636 85.0641 5.356 85.4081 5.356C85.7521 5.356 85.9601 5.628 85.9601 6.024C85.9601 6.42 85.7481 6.72 85.4041 6.72C85.0441 6.72 84.8401 6.428 84.8401 6.032ZM85.9641 6.74C85.9641 6.856 85.9761 6.956 85.9841 7H86.3481C86.3441 6.968 86.3281 6.828 86.3281 6.644V4.104H85.9561V5.348C85.8921 5.192 85.7081 5.024 85.3681 5.024C84.8241 5.024 84.4561 5.488 84.4561 6.032C84.4561 6.604 84.8041 7.052 85.3681 7.052C85.6681 7.052 85.8721 6.892 85.9641 6.708V6.74ZM87.0877 6.484C87.0877 6.788 87.3397 7.06 87.7317 7.06C88.0757 7.06 88.2677 6.876 88.3517 6.74C88.3517 6.88 88.3637 6.952 88.3717 7H88.7397C88.7317 6.952 88.7157 6.852 88.7157 6.684V5.72C88.7157 5.344 88.4917 5.016 87.9157 5.016C87.4997 5.016 87.1677 5.272 87.1277 5.64L87.4877 5.724C87.5117 5.5 87.6597 5.336 87.9237 5.336C88.2157 5.336 88.3397 5.492 88.3397 5.68C88.3397 5.748 88.3077 5.808 88.1917 5.824L87.6717 5.9C87.3397 5.948 87.0877 6.14 87.0877 6.484ZM87.7837 6.744C87.5917 6.744 87.4717 6.608 87.4717 6.464C87.4717 6.292 87.5917 6.2 87.7517 6.176L88.3397 6.088V6.176C88.3397 6.596 88.0917 6.744 87.7837 6.744ZM89.3614 6.5C89.3934 6.72 89.6174 7.06 90.1454 7.06C90.6214 7.06 90.8494 6.736 90.8494 6.464C90.8494 6.18 90.6654 5.968 90.3174 5.892L90.0054 5.824C89.8574 5.792 89.7854 5.708 89.7854 5.592C89.7854 5.46 89.9134 5.336 90.1054 5.336C90.4094 5.336 90.4894 5.556 90.5054 5.656L90.8374 5.532C90.7974 5.36 90.6334 5.016 90.1054 5.016C89.7294 5.016 89.4214 5.296 89.4214 5.624C89.4214 5.896 89.6014 6.1 89.9014 6.164L90.2294 6.236C90.3894 6.272 90.4774 6.364 90.4774 6.484C90.4774 6.62 90.3614 6.74 90.1494 6.74C89.8774 6.74 89.7254 6.58 89.7014 6.38L89.3614 6.5ZM91.7945 6.032C91.7945 5.636 92.0185 5.356 92.3625 5.356C92.7065 5.356 92.9145 5.628 92.9145 6.024C92.9145 6.42 92.7025 6.72 92.3585 6.72C91.9985 6.72 91.7945 6.428 91.7945 6.032ZM92.9185 6.74C92.9185 6.856 92.9305 6.956 92.9385 7H93.3025C93.2985 6.968 93.2825 6.828 93.2825 6.644V4.104H92.9105V5.348C92.8465 5.192 92.6625 5.024 92.3225 5.024C91.7785 5.024 91.4105 5.488 91.4105 6.032C91.4105 6.604 91.7585 7.052 92.3225 7.052C92.6225 7.052 92.8265 6.892 92.9185 6.708V6.74ZM93.982 6.5C94.014 6.72 94.238 7.06 94.766 7.06C95.242 7.06 95.47 6.736 95.47 6.464C95.47 6.18 95.286 5.968 94.938 5.892L94.626 5.824C94.478 5.792 94.406 5.708 94.406 5.592C94.406 5.46 94.534 5.336 94.726 5.336C95.03 5.336 95.11 5.556 95.126 5.656L95.458 5.532C95.418 5.36 95.254 5.016 94.726 5.016C94.35 5.016 94.042 5.296 94.042 5.624C94.042 5.896 94.222 6.1 94.522 6.164L94.85 6.236C95.01 6.272 95.098 6.364 95.098 6.484C95.098 6.62 94.982 6.74 94.77 6.74C94.498 6.74 94.346 6.58 94.322 6.38L93.982 6.5ZM96.0516 6.484C96.0516 6.788 96.3036 7.06 96.6956 7.06C97.0396 7.06 97.2316 6.876 97.3156 6.74C97.3156 6.88 97.3276 6.952 97.3356 7H97.7036C97.6956 6.952 97.6796 6.852 97.6796 6.684V5.72C97.6796 5.344 97.4556 5.016 96.8796 5.016C96.4636 5.016 96.1316 5.272 96.0916 5.64L96.4516 5.724C96.4756 5.5 96.6236 5.336 96.8876 5.336C97.1796 5.336 97.3036 5.492 97.3036 5.68C97.3036 5.748 97.2716 5.808 97.1556 5.824L96.6356 5.9C96.3036 5.948 96.0516 6.14 96.0516 6.484ZM96.7476 6.744C96.5556 6.744 96.4356 6.608 96.4356 6.464C96.4356 6.292 96.5556 6.2 96.7156 6.176L97.3036 6.088V6.176C97.3036 6.596 97.0556 6.744 96.7476 6.744ZM98.7293 6.032C98.7293 5.636 98.9533 5.356 99.2973 5.356C99.6413 5.356 99.8493 5.628 99.8493 6.024C99.8493 6.42 99.6373 6.72 99.2933 6.72C98.9333 6.72 98.7293 6.428 98.7293 6.032ZM99.8533 6.74C99.8533 6.856 99.8653 6.956 99.8733 7H100.237C100.233 6.968 100.217 6.828 100.217 6.644V4.104H99.8453V5.348C99.7813 5.192 99.5973 5.024 99.2573 5.024C98.7133 5.024 98.3453 5.488 98.3453 6.032C98.3453 6.604 98.6933 7.052 99.2573 7.052C99.5573 7.052 99.7613 6.892 99.8533 6.708V6.74ZM100.977 6.484C100.977 6.788 101.229 7.06 101.621 7.06C101.965 7.06 102.157 6.876 102.241 6.74C102.241 6.88 102.253 6.952 102.261 7H102.629C102.621 6.952 102.605 6.852 102.605 6.684V5.72C102.605 5.344 102.381 5.016 101.805 5.016C101.389 5.016 101.057 5.272 101.017 5.64L101.377 5.724C101.401 5.5 101.549 5.336 101.813 5.336C102.105 5.336 102.229 5.492 102.229 5.68C102.229 5.748 102.197 5.808 102.081 5.824L101.561 5.9C101.229 5.948 100.977 6.14 100.977 6.484ZM101.673 6.744C101.481 6.744 101.361 6.608 101.361 6.464C101.361 6.292 101.481 6.2 101.641 6.176L102.229 6.088V6.176C102.229 6.596 101.981 6.744 101.673 6.744ZM103.251 6.5C103.283 6.72 103.507 7.06 104.035 7.06C104.511 7.06 104.739 6.736 104.739 6.464C104.739 6.18 104.555 5.968 104.207 5.892L103.895 5.824C103.747 5.792 103.675 5.708 103.675 5.592C103.675 5.46 103.803 5.336 103.995 5.336C104.299 5.336 104.379 5.556 104.395 5.656L104.727 5.532C104.687 5.36 104.523 5.016 103.995 5.016C103.619 5.016 103.311 5.296 103.311 5.624C103.311 5.896 103.491 6.1 103.791 6.164L104.119 6.236C104.279 6.272 104.367 6.364 104.367 6.484C104.367 6.62 104.251 6.74 104.039 6.74C103.767 6.74 103.615 6.58 103.591 6.38L103.251 6.5ZM105.684 6.032C105.684 5.636 105.908 5.356 106.252 5.356C106.596 5.356 106.804 5.628 106.804 6.024C106.804 6.42 106.592 6.72 106.248 6.72C105.888 6.72 105.684 6.428 105.684 6.032ZM106.808 6.74C106.808 6.856 106.82 6.956 106.828 7H107.192C107.188 6.968 107.172 6.828 107.172 6.644V4.104H106.8V5.348C106.736 5.192 106.552 5.024 106.212 5.024C105.668 5.024 105.3 5.488 105.3 6.032C105.3 6.604 105.648 7.052 106.212 7.052C106.512 7.052 106.716 6.892 106.808 6.708V6.74ZM107.871 6.5C107.903 6.72 108.127 7.06 108.655 7.06C109.131 7.06 109.359 6.736 109.359 6.464C109.359 6.18 109.175 5.968 108.827 5.892L108.515 5.824C108.367 5.792 108.295 5.708 108.295 5.592C108.295 5.46 108.423 5.336 108.615 5.336C108.919 5.336 108.999 5.556 109.015 5.656L109.347 5.532C109.307 5.36 109.143 5.016 108.615 5.016C108.239 5.016 107.931 5.296 107.931 5.624C107.931 5.896 108.111 6.1 108.411 6.164L108.739 6.236C108.899 6.272 108.987 6.364 108.987 6.484C108.987 6.62 108.871 6.74 108.659 6.74C108.387 6.74 108.235 6.58 108.211 6.38L107.871 6.5ZM109.941 6.484C109.941 6.788 110.193 7.06 110.585 7.06C110.929 7.06 111.121 6.876 111.205 6.74C111.205 6.88 111.217 6.952 111.225 7H111.593C111.585 6.952 111.569 6.852 111.569 6.684V5.72C111.569 5.344 111.345 5.016 110.769 5.016C110.353 5.016 110.021 5.272 109.981 5.64L110.341 5.724C110.365 5.5 110.513 5.336 110.777 5.336C111.069 5.336 111.193 5.492 111.193 5.68C111.193 5.748 111.161 5.808 111.045 5.824L110.525 5.9C110.193 5.948 109.941 6.14 109.941 6.484ZM110.637 6.744C110.445 6.744 110.325 6.608 110.325 6.464C110.325 6.292 110.445 6.2 110.605 6.176L111.193 6.088V6.176C111.193 6.596 110.945 6.744 110.637 6.744ZM112.619 6.032C112.619 5.636 112.843 5.356 113.187 5.356C113.531 5.356 113.739 5.628 113.739 6.024C113.739 6.42 113.527 6.72 113.183 6.72C112.823 6.72 112.619 6.428 112.619 6.032ZM113.743 6.74C113.743 6.856 113.755 6.956 113.763 7H114.127C114.123 6.968 114.107 6.828 114.107 6.644V4.104H113.735V5.348C113.671 5.192 113.487 5.024 113.147 5.024C112.603 5.024 112.235 5.488 112.235 6.032C112.235 6.604 112.583 7.052 113.147 7.052C113.447 7.052 113.651 6.892 113.743 6.708V6.74ZM114.866 6.484C114.866 6.788 115.118 7.06 115.51 7.06C115.854 7.06 116.046 6.876 116.13 6.74C116.13 6.88 116.142 6.952 116.15 7H116.518C116.51 6.952 116.494 6.852 116.494 6.684V5.72C116.494 5.344 116.27 5.016 115.694 5.016C115.278 5.016 114.946 5.272 114.906 5.64L115.266 5.724C115.29 5.5 115.438 5.336 115.702 5.336C115.994 5.336 116.118 5.492 116.118 5.68C116.118 5.748 116.086 5.808 115.97 5.824L115.45 5.9C115.118 5.948 114.866 6.14 114.866 6.484ZM115.562 6.744C115.37 6.744 115.25 6.608 115.25 6.464C115.25 6.292 115.37 6.2 115.53 6.176L116.118 6.088V6.176C116.118 6.596 115.87 6.744 115.562 6.744ZM117.14 6.5C117.172 6.72 117.396 7.06 117.924 7.06C118.4 7.06 118.628 6.736 118.628 6.464C118.628 6.18 118.444 5.968 118.096 5.892L117.784 5.824C117.636 5.792 117.564 5.708 117.564 5.592C117.564 5.46 117.692 5.336 117.884 5.336C118.188 5.336 118.268 5.556 118.284 5.656L118.616 5.532C118.576 5.36 118.412 5.016 117.884 5.016C117.508 5.016 117.2 5.296 117.2 5.624C117.2 5.896 117.38 6.1 117.68 6.164L118.008 6.236C118.168 6.272 118.256 6.364 118.256 6.484C118.256 6.62 118.14 6.74 117.928 6.74C117.656 6.74 117.504 6.58 117.48 6.38L117.14 6.5ZM119.573 6.032C119.573 5.636 119.797 5.356 120.141 5.356C120.485 5.356 120.693 5.628 120.693 6.024C120.693 6.42 120.481 6.72 120.137 6.72C119.777 6.72 119.573 6.428 119.573 6.032ZM120.697 6.74C120.697 6.856 120.709 6.956 120.717 7H121.081C121.077 6.968 121.061 6.828 121.061 6.644V4.104H120.689V5.348C120.625 5.192 120.441 5.024 120.101 5.024C119.557 5.024 119.189 5.488 119.189 6.032C119.189 6.604 119.537 7.052 120.101 7.052C120.401 7.052 120.605 6.892 120.697 6.708V6.74ZM121.76 6.5C121.792 6.72 122.016 7.06 122.544 7.06C123.02 7.06 123.248 6.736 123.248 6.464C123.248 6.18 123.064 5.968 122.716 5.892L122.404 5.824C122.256 5.792 122.184 5.708 122.184 5.592C122.184 5.46 122.312 5.336 122.504 5.336C122.808 5.336 122.888 5.556 122.904 5.656L123.236 5.532C123.196 5.36 123.032 5.016 122.504 5.016C122.128 5.016 121.82 5.296 121.82 5.624C121.82 5.896 122 6.1 122.3 6.164L122.628 6.236C122.788 6.272 122.876 6.364 122.876 6.484C122.876 6.62 122.76 6.74 122.548 6.74C122.276 6.74 122.124 6.58 122.1 6.38L121.76 6.5ZM123.83 6.484C123.83 6.788 124.082 7.06 124.474 7.06C124.818 7.06 125.01 6.876 125.094 6.74C125.094 6.88 125.106 6.952 125.114 7H125.482C125.474 6.952 125.458 6.852 125.458 6.684V5.72C125.458 5.344 125.234 5.016 124.658 5.016C124.242 5.016 123.91 5.272 123.87 5.64L124.23 5.724C124.254 5.5 124.402 5.336 124.666 5.336C124.958 5.336 125.082 5.492 125.082 5.68C125.082 5.748 125.05 5.808 124.934 5.824L124.414 5.9C124.082 5.948 123.83 6.14 123.83 6.484ZM124.526 6.744C124.334 6.744 124.214 6.608 124.214 6.464C124.214 6.292 124.334 6.2 124.494 6.176L125.082 6.088V6.176C125.082 6.596 124.834 6.744 124.526 6.744ZM126.508 6.032C126.508 5.636 126.732 5.356 127.076 5.356C127.42 5.356 127.628 5.628 127.628 6.024C127.628 6.42 127.416 6.72 127.072 6.72C126.712 6.72 126.508 6.428 126.508 6.032ZM127.632 6.74C127.632 6.856 127.644 6.956 127.652 7H128.016C128.012 6.968 127.996 6.828 127.996 6.644V4.104H127.624V5.348C127.56 5.192 127.376 5.024 127.036 5.024C126.492 5.024 126.124 5.488 126.124 6.032C126.124 6.604 126.472 7.052 127.036 7.052C127.336 7.052 127.54 6.892 127.632 6.708V6.74ZM128.695 6.5C128.727 6.72 128.951 7.06 129.479 7.06C129.955 7.06 130.183 6.736 130.183 6.464C130.183 6.18 129.999 5.968 129.651 5.892L129.339 5.824C129.191 5.792 129.119 5.708 129.119 5.592C129.119 5.46 129.247 5.336 129.439 5.336C129.743 5.336 129.823 5.556 129.839 5.656L130.171 5.532C130.131 5.36 129.967 5.016 129.439 5.016C129.063 5.016 128.755 5.296 128.755 5.624C128.755 5.896 128.935 6.1 129.235 6.164L129.563 6.236C129.723 6.272 129.811 6.364 129.811 6.484C129.811 6.62 129.695 6.74 129.483 6.74C129.211 6.74 129.059 6.58 129.035 6.38L128.695 6.5ZM130.765 6.484C130.765 6.788 131.017 7.06 131.409 7.06C131.753 7.06 131.945 6.876 132.029 6.74C132.029 6.88 132.041 6.952 132.049 7H132.417C132.409 6.952 132.393 6.852 132.393 6.684V5.72C132.393 5.344 132.169 5.016 131.593 5.016C131.177 5.016 130.845 5.272 130.805 5.64L131.165 5.724C131.189 5.5 131.337 5.336 131.601 5.336C131.893 5.336 132.017 5.492 132.017 5.68C132.017 5.748 131.985 5.808 131.869 5.824L131.349 5.9C131.017 5.948 130.765 6.14 130.765 6.484ZM131.461 6.744C131.269 6.744 131.149 6.608 131.149 6.464C131.149 6.292 131.269 6.2 131.429 6.176L132.017 6.088V6.176C132.017 6.596 131.769 6.744 131.461 6.744ZM133.443 6.032C133.443 5.636 133.667 5.356 134.011 5.356C134.355 5.356 134.563 5.628 134.563 6.024C134.563 6.42 134.351 6.72 134.007 6.72C133.647 6.72 133.443 6.428 133.443 6.032ZM134.567 6.74C134.567 6.856 134.579 6.956 134.587 7H134.951C134.947 6.968 134.931 6.828 134.931 6.644V4.104H134.559V5.348C134.495 5.192 134.311 5.024 133.971 5.024C133.427 5.024 133.059 5.488 133.059 6.032C133.059 6.604 133.407 7.052 133.971 7.052C134.271 7.052 134.475 6.892 134.567 6.708V6.74ZM135.69 6.484C135.69 6.788 135.942 7.06 136.334 7.06C136.678 7.06 136.87 6.876 136.954 6.74C136.954 6.88 136.966 6.952 136.974 7H137.342C137.334 6.952 137.318 6.852 137.318 6.684V5.72C137.318 5.344 137.094 5.016 136.518 5.016C136.102 5.016 135.77 5.272 135.73 5.64L136.09 5.724C136.114 5.5 136.262 5.336 136.526 5.336C136.818 5.336 136.942 5.492 136.942 5.68C136.942 5.748 136.91 5.808 136.794 5.824L136.274 5.9C135.942 5.948 135.69 6.14 135.69 6.484ZM136.386 6.744C136.194 6.744 136.074 6.608 136.074 6.464C136.074 6.292 136.194 6.2 136.354 6.176L136.942 6.088V6.176C136.942 6.596 136.694 6.744 136.386 6.744ZM137.964 6.5C137.996 6.72 138.22 7.06 138.748 7.06C139.224 7.06 139.452 6.736 139.452 6.464C139.452 6.18 139.268 5.968 138.92 5.892L138.608 5.824C138.46 5.792 138.388 5.708 138.388 5.592C138.388 5.46 138.516 5.336 138.708 5.336C139.012 5.336 139.092 5.556 139.108 5.656L139.44 5.532C139.4 5.36 139.236 5.016 138.708 5.016C138.332 5.016 138.024 5.296 138.024 5.624C138.024 5.896 138.204 6.1 138.504 6.164L138.832 6.236C138.992 6.272 139.08 6.364 139.08 6.484C139.08 6.62 138.964 6.74 138.752 6.74C138.48 6.74 138.328 6.58 138.304 6.38L137.964 6.5ZM140.397 6.032C140.397 5.636 140.621 5.356 140.965 5.356C141.309 5.356 141.517 5.628 141.517 6.024C141.517 6.42 141.305 6.72 140.961 6.72C140.601 6.72 140.397 6.428 140.397 6.032ZM141.521 6.74C141.521 6.856 141.533 6.956 141.541 7H141.905C141.901 6.968 141.885 6.828 141.885 6.644V4.104H141.513V5.348C141.449 5.192 141.265 5.024 140.925 5.024C140.381 5.024 140.013 5.488 140.013 6.032C140.013 6.604 140.361 7.052 140.925 7.052C141.225 7.052 141.429 6.892 141.521 6.708V6.74ZM142.645 6.484C142.645 6.788 142.897 7.06 143.289 7.06C143.633 7.06 143.825 6.876 143.909 6.74C143.909 6.88 143.921 6.952 143.929 7H144.297C144.289 6.952 144.273 6.852 144.273 6.684V5.72C144.273 5.344 144.049 5.016 143.473 5.016C143.057 5.016 142.725 5.272 142.685 5.64L143.045 5.724C143.069 5.5 143.217 5.336 143.481 5.336C143.773 5.336 143.897 5.492 143.897 5.68C143.897 5.748 143.865 5.808 143.749 5.824L143.229 5.9C142.897 5.948 142.645 6.14 142.645 6.484ZM143.341 6.744C143.149 6.744 143.029 6.608 143.029 6.464C143.029 6.292 143.149 6.2 143.309 6.176L143.897 6.088V6.176C143.897 6.596 143.649 6.744 143.341 6.744ZM145.322 6.032C145.322 5.636 145.546 5.356 145.89 5.356C146.234 5.356 146.442 5.628 146.442 6.024C146.442 6.42 146.23 6.72 145.886 6.72C145.526 6.72 145.322 6.428 145.322 6.032ZM146.446 6.74C146.446 6.856 146.458 6.956 146.466 7H146.83C146.826 6.968 146.81 6.828 146.81 6.644V4.104H146.438V5.348C146.374 5.192 146.19 5.024 145.85 5.024C145.306 5.024 144.938 5.488 144.938 6.032C144.938 6.604 145.286 7.052 145.85 7.052C146.15 7.052 146.354 6.892 146.446 6.708V6.74ZM147.57 6.484C147.57 6.788 147.822 7.06 148.214 7.06C148.558 7.06 148.75 6.876 148.834 6.74C148.834 6.88 148.846 6.952 148.854 7H149.222C149.214 6.952 149.198 6.852 149.198 6.684V5.72C149.198 5.344 148.974 5.016 148.398 5.016C147.982 5.016 147.65 5.272 147.61 5.64L147.97 5.724C147.994 5.5 148.142 5.336 148.406 5.336C148.698 5.336 148.822 5.492 148.822 5.68C148.822 5.748 148.79 5.808 148.674 5.824L148.154 5.9C147.822 5.948 147.57 6.14 147.57 6.484ZM148.266 6.744C148.074 6.744 147.954 6.608 147.954 6.464C147.954 6.292 148.074 6.2 148.234 6.176L148.822 6.088V6.176C148.822 6.596 148.574 6.744 148.266 6.744ZM150.248 6.032C150.248 5.636 150.472 5.356 150.816 5.356C151.16 5.356 151.368 5.628 151.368 6.024C151.368 6.42 151.156 6.72 150.812 6.72C150.452 6.72 150.248 6.428 150.248 6.032ZM151.372 6.74C151.372 6.856 151.384 6.956 151.392 7H151.756C151.752 6.968 151.736 6.828 151.736 6.644V4.104H151.364V5.348C151.3 5.192 151.116 5.024 150.776 5.024C150.232 5.024 149.864 5.488 149.864 6.032C149.864 6.604 150.212 7.052 150.776 7.052C151.076 7.052 151.28 6.892 151.372 6.708V6.74ZM152.495 6.484C152.495 6.788 152.747 7.06 153.139 7.06C153.483 7.06 153.675 6.876 153.759 6.74C153.759 6.88 153.771 6.952 153.779 7H154.147C154.139 6.952 154.123 6.852 154.123 6.684V5.72C154.123 5.344 153.899 5.016 153.323 5.016C152.907 5.016 152.575 5.272 152.535 5.64L152.895 5.724C152.919 5.5 153.067 5.336 153.331 5.336C153.623 5.336 153.747 5.492 153.747 5.68C153.747 5.748 153.715 5.808 153.599 5.824L153.079 5.9C152.747 5.948 152.495 6.14 152.495 6.484ZM153.191 6.744C152.999 6.744 152.879 6.608 152.879 6.464C152.879 6.292 152.999 6.2 153.159 6.176L153.747 6.088V6.176C153.747 6.596 153.499 6.744 153.191 6.744ZM155.173 6.032C155.173 5.636 155.397 5.356 155.741 5.356C156.085 5.356 156.293 5.628 156.293 6.024C156.293 6.42 156.081 6.72 155.737 6.72C155.377 6.72 155.173 6.428 155.173 6.032ZM156.297 6.74C156.297 6.856 156.309 6.956 156.317 7H156.681C156.677 6.968 156.661 6.828 156.661 6.644V4.104H156.289V5.348C156.225 5.192 156.041 5.024 155.701 5.024C155.157 5.024 154.789 5.488 154.789 6.032C154.789 6.604 155.137 7.052 155.701 7.052C156.001 7.052 156.205 6.892 156.297 6.708V6.74ZM157.42 6.484C157.42 6.788 157.672 7.06 158.064 7.06C158.408 7.06 158.6 6.876 158.684 6.74C158.684 6.88 158.696 6.952 158.704 7H159.072C159.064 6.952 159.048 6.852 159.048 6.684V5.72C159.048 5.344 158.824 5.016 158.248 5.016C157.832 5.016 157.5 5.272 157.46 5.64L157.82 5.724C157.844 5.5 157.992 5.336 158.256 5.336C158.548 5.336 158.672 5.492 158.672 5.68C158.672 5.748 158.64 5.808 158.524 5.824L158.004 5.9C157.672 5.948 157.42 6.14 157.42 6.484ZM158.116 6.744C157.924 6.744 157.804 6.608 157.804 6.464C157.804 6.292 157.924 6.2 158.084 6.176L158.672 6.088V6.176C158.672 6.596 158.424 6.744 158.116 6.744ZM159.694 6.5C159.726 6.72 159.95 7.06 160.478 7.06C160.954 7.06 161.182 6.736 161.182 6.464C161.182 6.18 160.998 5.968 160.65 5.892L160.338 5.824C160.19 5.792 160.118 5.708 160.118 5.592C160.118 5.46 160.246 5.336 160.438 5.336C160.742 5.336 160.822 5.556 160.838 5.656L161.17 5.532C161.13 5.36 160.966 5.016 160.438 5.016C160.062 5.016 159.754 5.296 159.754 5.624C159.754 5.896 159.934 6.1 160.234 6.164L160.562 6.236C160.722 6.272 160.81 6.364 160.81 6.484C160.81 6.62 160.694 6.74 160.482 6.74C160.21 6.74 160.058 6.58 160.034 6.38L159.694 6.5ZM162.127 6.032C162.127 5.636 162.351 5.356 162.695 5.356C163.039 5.356 163.247 5.628 163.247 6.024C163.247 6.42 163.035 6.72 162.691 6.72C162.331 6.72 162.127 6.428 162.127 6.032ZM163.251 6.74C163.251 6.856 163.263 6.956 163.271 7H163.635C163.631 6.968 163.615 6.828 163.615 6.644V4.104H163.243V5.348C163.179 5.192 162.995 5.024 162.655 5.024C162.111 5.024 161.743 5.488 161.743 6.032C161.743 6.604 162.091 7.052 162.655 7.052C162.955 7.052 163.159 6.892 163.251 6.708V6.74ZM164.375 6.484C164.375 6.788 164.627 7.06 165.019 7.06C165.363 7.06 165.555 6.876 165.639 6.74C165.639 6.88 165.651 6.952 165.659 7H166.027C166.019 6.952 166.003 6.852 166.003 6.684V5.72C166.003 5.344 165.779 5.016 165.203 5.016C164.787 5.016 164.455 5.272 164.415 5.64L164.775 5.724C164.799 5.5 164.947 5.336 165.211 5.336C165.503 5.336 165.627 5.492 165.627 5.68C165.627 5.748 165.595 5.808 165.479 5.824L164.959 5.9C164.627 5.948 164.375 6.14 164.375 6.484ZM165.071 6.744C164.879 6.744 164.759 6.608 164.759 6.464C164.759 6.292 164.879 6.2 165.039 6.176L165.627 6.088V6.176C165.627 6.596 165.379 6.744 165.071 6.744ZM166.649 6.5C166.681 6.72 166.905 7.06 167.433 7.06C167.909 7.06 168.137 6.736 168.137 6.464C168.137 6.18 167.953 5.968 167.605 5.892L167.293 5.824C167.145 5.792 167.073 5.708 167.073 5.592C167.073 5.46 167.201 5.336 167.393 5.336C167.697 5.336 167.777 5.556 167.793 5.656L168.125 5.532C168.085 5.36 167.921 5.016 167.393 5.016C167.017 5.016 166.709 5.296 166.709 5.624C166.709 5.896 166.889 6.1 167.189 6.164L167.517 6.236C167.677 6.272 167.765 6.364 167.765 6.484C167.765 6.62 167.649 6.74 167.437 6.74C167.165 6.74 167.013 6.58 166.989 6.38L166.649 6.5ZM169.082 6.032C169.082 5.636 169.306 5.356 169.65 5.356C169.994 5.356 170.202 5.628 170.202 6.024C170.202 6.42 169.99 6.72 169.646 6.72C169.286 6.72 169.082 6.428 169.082 6.032ZM170.206 6.74C170.206 6.856 170.218 6.956 170.226 7H170.59C170.586 6.968 170.57 6.828 170.57 6.644V4.104H170.198V5.348C170.134 5.192 169.95 5.024 169.61 5.024C169.066 5.024 168.698 5.488 168.698 6.032C168.698 6.604 169.046 7.052 169.61 7.052C169.91 7.052 170.114 6.892 170.206 6.708V6.74ZM171.329 6.484C171.329 6.788 171.581 7.06 171.973 7.06C172.317 7.06 172.509 6.876 172.593 6.74C172.593 6.88 172.605 6.952 172.613 7H172.981C172.973 6.952 172.957 6.852 172.957 6.684V5.72C172.957 5.344 172.733 5.016 172.157 5.016C171.741 5.016 171.409 5.272 171.369 5.64L171.729 5.724C171.753 5.5 171.901 5.336 172.165 5.336C172.457 5.336 172.581 5.492 172.581 5.68C172.581 5.748 172.549 5.808 172.433 5.824L171.913 5.9C171.581 5.948 171.329 6.14 171.329 6.484ZM172.025 6.744C171.833 6.744 171.713 6.608 171.713 6.464C171.713 6.292 171.833 6.2 171.993 6.176L172.581 6.088V6.176C172.581 6.596 172.333 6.744 172.025 6.744ZM173.603 6.5C173.635 6.72 173.859 7.06 174.387 7.06C174.863 7.06 175.091 6.736 175.091 6.464C175.091 6.18 174.907 5.968 174.559 5.892L174.247 5.824C174.099 5.792 174.027 5.708 174.027 5.592C174.027 5.46 174.155 5.336 174.347 5.336C174.651 5.336 174.731 5.556 174.747 5.656L175.079 5.532C175.039 5.36 174.875 5.016 174.347 5.016C173.971 5.016 173.663 5.296 173.663 5.624C173.663 5.896 173.843 6.1 174.143 6.164L174.471 6.236C174.631 6.272 174.719 6.364 174.719 6.484C174.719 6.62 174.603 6.74 174.391 6.74C174.119 6.74 173.967 6.58 173.943 6.38L173.603 6.5ZM176.036 6.032C176.036 5.636 176.26 5.356 176.604 5.356C176.948 5.356 177.156 5.628 177.156 6.024C177.156 6.42 176.944 6.72 176.6 6.72C176.24 6.72 176.036 6.428 176.036 6.032ZM177.16 6.74C177.16 6.856 177.172 6.956 177.18 7H177.544C177.54 6.968 177.524 6.828 177.524 6.644V4.104H177.152V5.348C177.088 5.192 176.904 5.024 176.564 5.024C176.02 5.024 175.652 5.488 175.652 6.032C175.652 6.604 176 7.052 176.564 7.052C176.864 7.052 177.068 6.892 177.16 6.708V6.74ZM178.224 6.5C178.256 6.72 178.48 7.06 179.008 7.06C179.484 7.06 179.712 6.736 179.712 6.464C179.712 6.18 179.528 5.968 179.18 5.892L178.868 5.824C178.72 5.792 178.648 5.708 178.648 5.592C178.648 5.46 178.776 5.336 178.968 5.336C179.272 5.336 179.352 5.556 179.368 5.656L179.7 5.532C179.66 5.36 179.496 5.016 178.968 5.016C178.592 5.016 178.284 5.296 178.284 5.624C178.284 5.896 178.464 6.1 178.764 6.164L179.092 6.236C179.252 6.272 179.34 6.364 179.34 6.484C179.34 6.62 179.224 6.74 179.012 6.74C178.74 6.74 178.588 6.58 178.564 6.38L178.224 6.5ZM180.293 6.484C180.293 6.788 180.545 7.06 180.937 7.06C181.281 7.06 181.473 6.876 181.557 6.74C181.557 6.88 181.569 6.952 181.577 7H181.945C181.937 6.952 181.921 6.852 181.921 6.684V5.72C181.921 5.344 181.697 5.016 181.121 5.016C180.705 5.016 180.373 5.272 180.333 5.64L180.693 5.724C180.717 5.5 180.865 5.336 181.129 5.336C181.421 5.336 181.545 5.492 181.545 5.68C181.545 5.748 181.513 5.808 181.397 5.824L180.877 5.9C180.545 5.948 180.293 6.14 180.293 6.484ZM180.989 6.744C180.797 6.744 180.677 6.608 180.677 6.464C180.677 6.292 180.797 6.2 180.957 6.176L181.545 6.088V6.176C181.545 6.596 181.297 6.744 180.989 6.744Z" fill="#B2B2B2"/>
<path d="M538.35 8.54H541.53V10H542.48V8.54H543.59V7.63H542.48V3.52H541.13L538.35 7.41V8.54ZM541.53 7.63H539.25L541.53 4.46V7.63ZM544.502 9.36C544.502 9.75 544.802 10.05 545.192 10.05C545.582 10.05 545.892 9.75 545.892 9.36C545.892 8.97 545.582 8.66 545.192 8.66C544.802 8.66 544.502 8.97 544.502 9.36ZM544.492 5.84C544.492 6.23 544.792 6.53 545.182 6.53C545.572 6.53 545.882 6.23 545.882 5.84C545.882 5.45 545.572 5.14 545.182 5.14C544.792 5.14 544.492 5.45 544.492 5.84ZM548.113 6.76C548.113 5.77 548.293 5.07 548.683 4.66C548.933 4.4 549.253 4.24 549.713 4.24C550.173 4.24 550.493 4.4 550.743 4.66C551.133 5.07 551.313 5.77 551.313 6.76C551.313 7.75 551.133 8.45 550.743 8.86C550.493 9.12 550.173 9.28 549.713 9.28C549.253 9.28 548.933 9.12 548.683 8.86C548.293 8.45 548.113 7.75 548.113 6.76ZM547.143 6.76C547.143 7.65 547.293 8.47 547.723 9.11C548.143 9.74 548.793 10.15 549.713 10.15C550.633 10.15 551.283 9.74 551.703 9.11C552.133 8.47 552.283 7.65 552.283 6.76C552.283 5.87 552.133 5.05 551.703 4.41C551.283 3.78 550.633 3.37 549.713 3.37C548.793 3.37 548.143 3.78 547.723 4.41C547.293 5.05 547.143 5.87 547.143 6.76ZM554.206 6.76C554.206 5.77 554.386 5.07 554.776 4.66C555.026 4.4 555.346 4.24 555.806 4.24C556.266 4.24 556.586 4.4 556.836 4.66C557.226 5.07 557.406 5.77 557.406 6.76C557.406 7.75 557.226 8.45 556.836 8.86C556.586 9.12 556.266 9.28 555.806 9.28C555.346 9.28 555.026 9.12 554.776 8.86C554.386 8.45 554.206 7.75 554.206 6.76ZM553.236 6.76C553.236 7.65 553.386 8.47 553.816 9.11C554.236 9.74 554.886 10.15 555.806 10.15C556.726 10.15 557.376 9.74 557.796 9.11C558.226 8.47 558.376 7.65 558.376 6.76C558.376 5.87 558.226 5.05 557.796 4.41C557.376 3.78 556.726 3.37 555.806 3.37C554.886 3.37 554.236 3.78 553.816 4.41C553.386 5.05 553.236 5.87 553.236 6.76Z" fill="#B2B2B2"/>
</svg>
